<svg xmlns="http://www.w3.org/2000/svg" width="1200" height="630" viewBox="0 0 1200 630">
  <defs>
    <linearGradient id="bg" x1="0%" y1="0%" x2="100%" y2="100%">
      <stop offset="0%" style="stop-color:#ffffff"/>
      <stop offset="100%" style="stop-color:#f0efe9"/>
    </linearGradient>
    <linearGradient id="swordGrad" x1="0%" y1="0%" x2="0%" y2="100%">
      <stop offset="0%" style="stop-color:#555"/>
      <stop offset="100%" style="stop-color:#222"/>
    </linearGradient>
  </defs>
  <rect width="1200" height="630" fill="url(#bg)"/>
  <g stroke="#e8e8e0" stroke-width="1" opacity="0.6">
    <line x1="0" y1="105" x2="1200" y2="105"/><line x1="0" y1="210" x2="1200" y2="210"/><line x1="0" y1="315" x2="1200" y2="315"/><line x1="0" y1="420" x2="1200" y2="420"/><line x1="0" y1="525" x2="1200" y2="525"/>
    <line x1="200" y1="0" x2="200" y2="630"/><line x1="400" y1="0" x2="400" y2="630"/><line x1="600" y1="0" x2="600" y2="630"/><line x1="800" y1="0" x2="800" y2="630"/><line x1="1000" y1="0" x2="1000" y2="630"/>
  </g>
  <rect x="32" y="32" width="1136" height="566" fill="none" stroke="#1a1a1a" stroke-width="3" rx="8"/>
  <rect x="44" y="44" width="1112" height="542" fill="none" stroke="#1a1a1a" stroke-width="1" rx="6" opacity="0.3"/>
  <g stroke="#1a1a1a" stroke-width="2" fill="none">
    <polyline points="32,80 32,32 80,32"/><polyline points="1120,32 1168,32 1168,80"/>
    <polyline points="32,550 32,598 80,598"/><polyline points="1120,598 1168,598 1168,550"/>
  </g>
  <g transform="translate(200, 315)">
    <polygon points="0,-180 8,-20 -8,-20" fill="url(#swordGrad)" opacity="0.9"/>
    <polygon points="2,-180 5,-20 2,-100" fill="#aaa" opacity="0.4"/>
    <rect x="-30" y="-20" width="60" height="12" rx="3" fill="#333"/>
    <rect x="-8" y="-8" width="16" height="60" rx="4" fill="#444"/>
    <ellipse cx="0" cy="58" rx="12" ry="10" fill="#333"/>
  </g>
  <text x="380" y="200" font-family="Georgia, serif" font-size="18" fill="#999" letter-spacing="6">X BEGINNER QUEST</text>
  <text x="380" y="290" font-family="Georgia, serif" font-size="72" font-weight="bold" fill="#1a1a1a">今日のクエストを</text>
  <text x="380" y="375" font-family="Georgia, serif" font-size="72" font-weight="bold" fill="#1a1a1a">クリアしよう</text>
  <rect x="380" y="405" width="500" height="2" fill="#1a1a1a" opacity="0.15"/>
  <text x="380" y="450" font-family="Georgia, serif" font-size="26" fill="#666">5つの質問に答えるだけ　毎日1分</text>
  <g transform="translate(380, 490)">
    <rect x="0" y="0" width="90" height="32" rx="4" fill="#1a1a1a"/>
    <text x="45" y="22" font-family="Georgia, serif" font-size="13" fill="#fff" text-anchor="middle">Lv.1 Lurker</text>
    <rect x="102" y="0" width="110" height="32" rx="4" fill="#444"/>
    <text x="157" y="22" font-family="Georgia, serif" font-size="13" fill="#fff" text-anchor="middle">Lv.3 Scout</text>
    <rect x="224" y="0" width="120" height="32" rx="4" fill="#222"/>
    <text x="284" y="22" font-family="Georgia, serif" font-size="13" fill="#fff" text-anchor="middle">Lv.5 Pioneer</text>
  </g>
  <text x="600" y="590" font-family="Georgia, serif" font-size="16" fill="#bbb" text-anchor="middle" letter-spacing="3">— あなたのランクを確認しよう —</text>
</svg>
